<?xml version="1.0" encoding="utf-8"?>
<!-- Generator: Adobe Illustrator 16.0.0, SVG Export Plug-In . SVG Version: 6.00 Build 0)  -->
<!DOCTYPE svg PUBLIC "-//W3C//DTD SVG 1.1//EN" "http://www.w3.org/Graphics/SVG/1.1/DTD/svg11.dtd">
<svg version="1.1" id="Calque_1" xmlns="http://www.w3.org/2000/svg" xmlns:xlink="http://www.w3.org/1999/xlink" x="0px" y="0px"
	 width="30px" height="30px" viewBox="0 0 30 30" enable-background="new 0 0 30 30" xml:space="preserve">
<g>
	<g>
		<path fill="#C9BBBB" d="M15,30c-0.02,0-0.039-0.005-0.057-0.014L0.068,22.505C0.026,22.484,0,22.44,0,22.395V7.667
			C0,7.623,0.022,7.582,0.06,7.56c0.037-0.022,0.083-0.024,0.123-0.004l14.874,7.5c0.042,0.021,0.068,0.063,0.068,0.111v14.708
			c0,0.044-0.022,0.085-0.06,0.106C15.045,29.994,15.023,30,15,30z M0.251,22.317l14.624,7.355v-14.43L0.251,7.869V22.317z"/>
	</g>
	<g>
		<path fill="#C9BBBB" d="M15,30c-0.023,0-0.045-0.006-0.065-0.02c-0.038-0.021-0.06-0.062-0.06-0.106V15.167
			c0-0.047,0.026-0.09,0.068-0.111l14.874-7.5c0.039-0.02,0.085-0.018,0.123,0.004C29.978,7.582,30,7.623,30,7.667v14.728
			c0,0.046-0.026,0.09-0.068,0.11l-14.875,7.481C15.039,29.995,15.02,30,15,30z M15.125,15.243v14.43l14.625-7.355V7.869
			L15.125,15.243z"/>
	</g>
	<g>
		<path fill="#C9BBBB" d="M15,15.291c-0.02,0-0.039-0.004-0.057-0.014l-14.875-7.5C0.026,7.756,0,7.713,0,7.667
			c0-0.047,0.026-0.09,0.068-0.111L14.943,0c0.036-0.019,0.078-0.019,0.114,0l14.875,7.555C29.974,7.576,30,7.619,30,7.667
			c0,0.047-0.026,0.09-0.068,0.111l-14.875,7.5C15.039,15.287,15.02,15.291,15,15.291z M0.402,7.666L15,15.026l14.598-7.36L15,0.251
			L0.402,7.666z"/>
	</g>
</g>
</svg>
