<?xml version="1.0" encoding="utf-8"?>
<!-- Generator: Adobe Illustrator 16.0.0, SVG Export Plug-In . SVG Version: 6.00 Build 0)  -->
<!DOCTYPE svg PUBLIC "-//W3C//DTD SVG 1.1//EN" "http://www.w3.org/Graphics/SVG/1.1/DTD/svg11.dtd">
<svg version="1.1" id="Calque_1" xmlns="http://www.w3.org/2000/svg" xmlns:xlink="http://www.w3.org/1999/xlink" x="0px" y="0px"
	 width="128.833px" height="71.042px" viewBox="0 0 128.833 71.042" enable-background="new 0 0 128.833 71.042"
	 xml:space="preserve">
<polygon fill="#CD0001" points="0,0 0,21.5 0,22.104 28.958,22.104 28.958,17.937 5,17.937 5,4.166 28.958,4.166 28.958,0 "/>
<polygon fill="#CD0001" points="68.25,48.938 68.25,70.438 68.25,71.042 97.208,71.042 97.208,66.875 73.25,66.875 73.25,53.103 
	97.208,53.103 97.208,48.938 "/>
<polygon fill="#CD0001" points="2,49 2,66.813 2,70.5 2,70.98 31.018,70.98 31.018,66.813 7,66.813 7,49 "/>
<polygon fill="#CD0001" points="57.958,49 57.958,66.813 38.999,66.813 38.999,49 34,49 34,66.813 34,70.5 34,70.98 62.958,70.98 
	62.958,70.5 62.958,66.813 62.958,49 "/>
<path fill="#CD0001" d="M37.999,4.166h18.944v4.716H37.999V4.166z M32.999,0v4.166v4.716v4.166v8.882h5v-8.882h18.945v8.882h5
	v-8.882h0.013V8.882h-0.013V4.166h0.013V0H32.999z"/>
<path fill="#CD0001" d="M105.942,53.191h18.101v4.715h-18.101V53.191z M101.165,49.024v4.167v4.715v4.167v8.882h4.777v-8.882h18.101
	v8.882h4.777v-8.882h0.013v-4.167h-0.013v-4.715h0.013v-4.167H101.165z"/>
<path fill="#CD0001" d="M104.832,4.166h18.3v4.716h-18.3V4.166z M100.002,0v4.166v4.716v4.166v8.882h4.83v-8.882h18.3v8.882h4.829
	v-8.882h0.014V8.882h-0.014V4.166h0.014V0H100.002z"/>
<polygon fill="#CD0001" points="66.007,0 66.007,13.048 66.008,13.048 71.007,13.048 89.966,13.048 89.966,17.937 66.008,17.937 
	66.008,22.104 89.966,22.104 94.965,22.104 94.965,17.937 94.965,13.048 94.965,9.056 94.965,8.882 71.007,8.882 71.007,4.166 
	94.965,4.166 94.965,0 "/>
</svg>
