<?xml version="1.0" encoding="utf-8"?>
<!-- Generator: Adobe Illustrator 16.0.0, SVG Export Plug-In . SVG Version: 6.00 Build 0)  -->
<!DOCTYPE svg PUBLIC "-//W3C//DTD SVG 1.1//EN" "http://www.w3.org/Graphics/SVG/1.1/DTD/svg11.dtd">
<svg version="1.1" id="Calque_1" xmlns="http://www.w3.org/2000/svg" xmlns:xlink="http://www.w3.org/1999/xlink" x="0px" y="0px"
	 width="20px" height="20px" viewBox="0 0 20 20" enable-background="new 0 0 20 20" xml:space="preserve">
<path id="pinterest-icon" fill="#F2F2F2" d="M10.355,2.418c-4.139,0-6.225,2.967-6.225,5.442c0,1.498,0.566,2.831,1.783,3.326
	c0.199,0.082,0.378,0.003,0.437-0.218c0.039-0.152,0.135-0.538,0.177-0.698c0.06-0.218,0.036-0.294-0.124-0.486
	C6.052,9.371,5.828,8.834,5.828,8.076c0-2.201,1.646-4.171,4.288-4.171c2.339,0,3.624,1.429,3.624,3.338
	c0,2.51-1.11,4.629-2.761,4.629c-0.911,0-1.594-0.754-1.375-1.676c0.262-1.104,0.77-2.294,0.77-3.09
	c0-0.713-0.384-1.309-1.176-1.309c-0.931,0-1.68,0.964-1.68,2.255c0,0.822,0.277,1.378,0.277,1.378s-0.953,4.04-1.12,4.746
	c-0.332,1.409-0.05,3.136-0.025,3.311c0.013,0.103,0.146,0.127,0.206,0.05c0.086-0.112,1.196-1.483,1.573-2.851
	c0.106-0.388,0.613-2.395,0.613-2.395c0.302,0.578,1.188,1.085,2.128,1.085c2.799,0,4.698-2.552,4.698-5.968
	C15.869,4.824,13.682,2.418,10.355,2.418z"/>
</svg>
