<?xml version="1.0" encoding="utf-8"?>
<!-- Generator: Adobe Illustrator 16.0.0, SVG Export Plug-In . SVG Version: 6.00 Build 0)  -->
<!DOCTYPE svg PUBLIC "-//W3C//DTD SVG 1.1//EN" "http://www.w3.org/Graphics/SVG/1.1/DTD/svg11.dtd">
<svg version="1.1" id="Calque_1" xmlns="http://www.w3.org/2000/svg" xmlns:xlink="http://www.w3.org/1999/xlink" x="0px" y="0px"
	 width="25px" height="25px" viewBox="0 0 25 25" enable-background="new 0 0 25 25" xml:space="preserve">
<path id="instagram-6-icon" fill="#F2F2F2" d="M17.674,11.438h-1.176c0.086,0.333,0.135,0.68,0.135,1.04
	c0,2.296-1.859,4.157-4.155,4.157S8.32,14.773,8.32,12.478c0-0.36,0.052-0.707,0.137-1.04H7.281v5.717
	c0,0.285,0.232,0.518,0.521,0.518h9.351c0.289,0,0.521-0.232,0.521-0.518V11.438L17.674,11.438z M17.674,7.801
	c0-0.287-0.232-0.52-0.521-0.52h-1.557c-0.289,0-0.52,0.232-0.52,0.52v1.56c0,0.286,0.23,0.52,0.52,0.52h1.557
	c0.289,0,0.521-0.233,0.521-0.52V7.801z M12.478,9.88c-1.435,0-2.598,1.162-2.598,2.598c0,1.435,1.163,2.599,2.598,2.599
	s2.599-1.164,2.599-2.599C15.076,11.042,13.912,9.88,12.478,9.88 M17.68,19.232H7.321c-0.857,0-1.554-0.695-1.554-1.555V7.321
	c0-0.858,0.696-1.554,1.554-1.554H17.68c0.857,0,1.553,0.695,1.553,1.554v10.356C19.232,18.537,18.537,19.232,17.68,19.232"/>
</svg>
